<?xml version="1.0" standalone="no"?>
<!DOCTYPE svg PUBLIC "-//W3C//DTD SVG 20010904//EN"
 "http://www.w3.org/TR/2001/REC-SVG-20010904/DTD/svg10.dtd">
<svg version="1.0" xmlns="http://www.w3.org/2000/svg"
 width="268.000000pt" height="268.000000pt" viewBox="0 0 268.000000 268.000000"
 preserveAspectRatio="xMidYMid meet">

<g transform="translate(0.000000,268.000000) scale(0.100000,-0.100000)"
fill="#000000" stroke="none">
<path d="M2120 2594 c-113 -14 -421 -96 -408 -109 2 -2 39 7 83 20 285 88 560
93 718 13 52 -26 124 -94 147 -137 l19 -36 1 36 c0 70 -115 154 -266 193 -62
16 -232 27 -294 20z"/>
<path d="M1670 2470 c-8 -5 -10 -10 -5 -10 6 0 17 5 25 10 8 5 11 10 5 10 -5
0 -17 -5 -25 -10z"/>
<path d="M1620 2450 c-8 -5 -10 -10 -5 -10 6 0 17 5 25 10 8 5 11 10 5 10 -5
0 -17 -5 -25 -10z"/>
<path d="M384 2285 c-6 -24 -8 -24 -123 -27 l-116 -3 -3 -332 -3 -333 300 0
c234 0 301 3 302 13 1 13 0 558 0 620 l-1 37 -131 0 -131 0 4 25 c5 24 3 25
-43 25 -43 0 -49 -3 -55 -25z m266 -170 l0 -45 -205 0 -205 0 0 45 0 45 205 0
205 0 0 -45z m0 -190 l0 -45 -205 0 -205 0 0 45 0 45 205 0 205 0 0 -45z m-2
-192 l-3 -48 -200 0 -200 0 -3 48 -3 47 206 0 206 0 -3 -47z"/>
<path d="M1050 2260 l0 -39 -72 -3 -73 -3 -3 -47 -3 -48 75 0 76 0 0 -270 0
-270 50 0 50 0 0 155 c0 85 3 155 6 155 3 0 14 -5 25 -10 18 -10 19 -7 19 48
0 52 -3 60 -25 72 -22 12 -25 20 -25 67 0 50 1 53 25 53 23 0 25 3 25 50 0 47
-2 50 -25 50 -22 0 -25 4 -25 40 l0 40 -50 0 -50 0 0 -40z"/>
<path d="M1229 2255 c-6 -42 0 -90 13 -93 9 -2 20 -29 31 -78 9 -41 33 -116
53 -166 l37 -92 -72 -67 -71 -67 0 -56 0 -57 30 16 c17 9 62 46 101 82 l70 66
52 -50 c50 -48 133 -113 146 -113 3 0 7 26 7 58 1 57 1 57 -47 94 -26 20 -59
52 -73 71 l-26 34 29 65 c36 78 68 199 77 291 l7 67 -182 0 c-99 0 -181 -2
-182 -5z m255 -132 c-7 -41 -41 -149 -54 -172 -13 -24 -47 59 -74 182 l-6 27
70 0 71 0 -7 -37z"/>
<path d="M2154 2225 c-18 -20 -20 -26 -8 -36 8 -6 14 -23 14 -38 1 -25 1 -25
15 7 8 19 21 32 32 32 16 0 16 2 -3 18 -12 9 -23 22 -25 29 -3 7 -12 3 -25
-12z"/>
<path d="M927 1953 c-4 -71 -14 -173 -22 -227 -8 -55 -15 -101 -15 -103 0 -7
90 -3 90 5 0 4 7 61 15 127 8 66 15 166 15 223 l0 102 -38 0 -39 0 -6 -127z"/>
<path d="M2610 1846 c0 -31 -36 -76 -61 -76 -28 0 -23 -19 7 -26 31 -8 41 -32
51 -121 l7 -68 8 68 c9 76 21 107 43 107 23 0 18 26 -10 54 -16 16 -25 36 -25
56 0 16 -4 30 -10 30 -5 0 -10 -11 -10 -24z"/>
<path d="M403 1510 c-110 -23 -163 -89 -163 -202 0 -97 39 -138 183 -197 41
-17 47 -24 47 -49 0 -31 -14 -42 -55 -42 -34 0 -115 29 -147 52 l-28 19 0 -95
0 -95 53 -16 c84 -26 147 -29 208 -11 116 33 172 138 139 258 -20 70 -51 95
-187 153 -33 14 -43 23 -43 41 0 49 75 58 158 19 30 -14 56 -25 58 -25 2 0 4
36 4 79 l0 79 -47 16 c-64 21 -129 27 -180 16z"/>
<path d="M730 1195 l0 -325 75 0 74 0 3 103 3 102 80 6 c89 6 129 23 169 69
52 62 59 171 17 263 -39 86 -96 107 -288 107 l-133 0 0 -325z m280 150 c26
-24 27 -78 0 -105 -15 -15 -33 -20 -75 -20 l-55 0 0 76 0 76 55 -4 c34 -3 62
-12 75 -23z"/>
<path d="M1430 1516 c0 -4 -174 -573 -190 -618 l-9 -28 84 0 84 0 12 55 12 55
83 0 83 0 11 -55 11 -55 91 0 c75 0 89 2 84 15 -3 8 -49 154 -103 325 l-97
310 -78 0 c-43 0 -78 -2 -78 -4z m107 -286 l20 -90 -50 0 c-35 0 -48 4 -44 13
2 6 12 47 22 90 10 42 22 77 25 77 4 0 16 -40 27 -90z"/>
<path d="M2380 1195 l0 -325 150 0 150 0 0 80 0 80 -75 0 -75 0 0 55 0 55 75
0 75 0 0 70 0 70 -75 0 -75 0 0 45 0 45 75 0 75 0 0 75 0 75 -150 0 -150 0 0
-325z"/>
<path d="M2032 1492 c-66 -24 -124 -79 -160 -152 -24 -49 -27 -66 -27 -160 0
-87 4 -113 22 -153 43 -93 94 -137 189 -162 62 -16 148 -9 201 17 27 13 28 16
29 93 0 44 -2 85 -4 91 -2 8 -19 6 -53 -7 -92 -35 -173 -18 -216 47 -23 36
-23 127 0 172 38 70 140 94 222 52 22 -11 41 -20 43 -20 1 0 2 37 0 82 l-3 81
-40 14 c-69 24 -144 26 -203 5z"/>
<path d="M2 1265 c0 -43 2 -62 7 -50 5 12 25 24 52 31 31 9 37 12 19 13 -34 1
-68 26 -73 54 -2 12 -5 -9 -5 -48z"/>
<path d="M155 1125 c-20 -36 -53 -104 -72 -152 -63 -154 -75 -206 -80 -359 -6
-163 5 -220 62 -304 19 -29 35 -60 35 -70 0 -22 26 -50 46 -50 34 0 54 20 54
56 0 28 -5 36 -25 44 -14 5 -31 7 -38 4 -24 -9 -75 62 -98 133 -53 170 -15
380 124 686 20 42 34 77 32 77 -2 0 -20 -29 -40 -65z"/>
<path d="M428 563 c6 -2 18 -2 25 0 6 3 1 5 -13 5 -14 0 -19 -2 -12 -5z"/>
<path d="M498 563 c12 -2 32 -2 45 0 12 2 2 4 -23 4 -25 0 -35 -2 -22 -4z"/>
<path d="M1003 543 c15 -2 39 -2 55 0 15 2 2 4 -28 4 -30 0 -43 -2 -27 -4z"/>
<path d="M1350 393 c-321 -153 -571 -223 -798 -223 -71 0 -153 5 -182 10 -41
8 -56 7 -62 -2 -27 -44 11 -58 168 -65 167 -8 307 19 534 104 142 53 460 211
460 229 0 5 12 10 -120 -53z"/>
</g>
</svg>
